<svg id="Слой_1" data-name="Слой 1" xmlns="http://www.w3.org/2000/svg" viewBox="0 0 47.261 47.261"><defs><style>.cls-1{fill:none;}</style></defs><path class="cls-1" d="M14.368,40.269c-12.682,0-25.629-9.265-25.629-21.6S.357-6.992,13.039-6.992,36,3.011,36,15.339,27.05,40.269,14.368,40.269Z" transform="translate(11.261 6.992)"/><path d="M2.927,27.3a.5.5,0,0,1-.444-.269,12.211,12.211,0,0,1-.964-8.869C2.768,13.093,5.55,10.251,9.352,7.64A16.048,16.048,0,0,1,7.709,2.751.5.5,0,0,1,7.9,2.289,8.272,8.272,0,0,1,12.931,1,9.007,9.007,0,0,1,18.08,2.266a.5.5,0,0,1,.2.519,16.748,16.748,0,0,1-1.706,4.861,17.393,17.393,0,0,1,6.695,7.675.5.5,0,1,1-.912.41,16.42,16.42,0,0,0-6.737-7.493.5.5,0,0,1-.154-.723,13.4,13.4,0,0,0,1.76-4.606,8.586,8.586,0,0,0-4.3-.9,7.845,7.845,0,0,0-4.186.913,16.387,16.387,0,0,0,1.7,4.659.5.5,0,0,1-.166.644c-3.8,2.552-6.573,5.261-7.788,10.192a11.222,11.222,0,0,0,.883,8.155.5.5,0,0,1-.212.675A.505.505,0,0,1,2.927,27.3Z" transform="translate(11.261 6.992)"/><path d="M25.1,30.253H20.06a.5.5,0,0,1-.5-.5l-.011-11.52a.5.5,0,0,1,.5-.5H25.1a.5.5,0,0,1,.5.5v11.52A.5.5,0,0,1,25.1,30.253Zm-4.541-1H24.6V18.733H20.549Zm-7.5-20.444a6.042,6.042,0,0,1-3.435-.837.5.5,0,1,1,.667-.745,5.489,5.489,0,0,0,2.768.582,5.037,5.037,0,0,0,2.689-.634.5.5,0,1,1,.529.849A5.988,5.988,0,0,1,13.059,8.809Z" transform="translate(11.261 6.992)"/><path d="M25.1,27.368H20.06v-1H25.1Zm0-2.875H20.06v-1H25.1Zm0-2.875H20.06v-1H25.1Z" transform="translate(11.261 6.992)"/><path d="M10.646,30.273H5.605a.5.5,0,0,1-.5-.5V26.878a.5.5,0,0,1,.5-.5h5.041a.5.5,0,0,1,.5.5v2.895A.5.5,0,0,1,10.646,30.273Zm-4.541-1h4.041V27.378H6.105Zm11.768.97H12.832a.5.5,0,0,1-.5-.5v-5.76a.5.5,0,0,1,.5-.5h5.041a.5.5,0,0,1,.5.5v5.76A.5.5,0,0,1,17.873,30.243Zm-4.541-1h4.041v-4.76H13.332Zm.084-8.9A4.06,4.06,0,0,1,9.6,17.693l-.835,0a.5.5,0,0,1,0-1h0l.6,0c-.013-.124-.019-.249-.02-.375s.011-.26.026-.388l-.6,0a.5.5,0,0,1,0-1h0l.846,0a4.058,4.058,0,0,1,3.858-2.611,4.215,4.215,0,0,1,2.356.76.5.5,0,0,1-.572.82,3.222,3.222,0,0,0-1.8-.58h-.052a3.073,3.073,0,0,0-2.7,1.615l2.582,0a.5.5,0,0,1,0,1h0l-2.913-.006a3.043,3.043,0,0,0-.032.383,3.224,3.224,0,0,0,.026.382l2.912.013a.5.5,0,0,1,0,1h0L10.694,17.7a3.077,3.077,0,0,0,.567.764,2.982,2.982,0,0,0,2.167.876,3.616,3.616,0,0,0,1.975-.692.5.5,0,1,1,.588.809,4.619,4.619,0,0,1-2.538.883Z" transform="translate(11.261 6.992)"/><rect x="24.093" y="33.361" width="5.041" height="1"/></svg>