<svg viewBox="0 0 17.2 18" width="20" height="20" aria-hidden="true" class="m-icon m-icon--xxl ">
            <path fill="#000" d="M15.88 3.21h-2.66v-.73a.3.3 0 0 0-.3-.3H4.27a.3.3 0 0 0-.3.3v.73H1.31a.3.3 0 0 0-.3.3v.88a3.06 3.06 0 0 0 3.05 3.05h.13a4.62 4.62 0 0 0 4.11 3.27v3.16H6.25c-.17 0-.3.13-.3.3s.13.3.3.3h4.69c.17 0 .3-.13.3-.3s-.13-.3-.3-.3H8.89V10.7a4.6 4.6 0 0 0 4.1-3.27h.13a3.06 3.06 0 0 0 3.05-3.05v-.87a.29.29 0 0 0-.29-.3zM1.61 4.39v-.58h2.36v2.3c0 .25.03.49.07.73a2.46 2.46 0 0 1-2.43-2.45zm6.98 5.74a4.02 4.02 0 0 1-4.02-4.02V2.78h8.05v3.33a4.04 4.04 0 0 1-4.03 4.02zm6.99-5.74a2.45 2.45 0 0 1-2.44 2.45c.04-.24.07-.48.07-.73v-2.3h2.36v.58zM12.16 15.3H5.03c-.17 0-.3.13-.3.3s.13.3.3.3h7.14c.17 0 .3-.13.3-.3s-.14-.3-.31-.3z">
            </path>
           </svg>