<svg viewBox="0 0 17.5 18" width="20" height="20" aria-hidden="true" class="m-icon m-icon--xxl ">
            <path fill="#000" d="M16.2 7.63h-1.05l-.01-4.89a.33.33 0 0 0-.32-.32H1.27a.3.3 0 0 0-.3.3v9.06c0 .17.15.32.32.32h6.47v1.4H5.62c-.17 0-.3.13-.3.3s.13.3.3.3h4.88c.17 0 .3-.13.3-.3s-.13-.3-.3-.3H8.36v-1.4h3.21v3.54c0 .17.13.3.3.3h4.33a.3.3 0 0 0 .3-.3v-7.7a.3.3 0 0 0-.3-.31zm-4.63.3v3.57h-10V3.02h12.97l.01 4.61h-2.69a.3.3 0 0 0-.29.3zm4.34 7.4h-3.73v-7.1h3.73v7.1z">
            </path>
            <circle fill="#000" cx="14.07" cy="14.38" r=".39"></circle>
           </svg>