<?xml version="1.0" encoding="utf-8"?>
<!-- Generator: Adobe Illustrator 25.4.1, SVG Export Plug-In . SVG Version: 6.00 Build 0)  -->
<svg version="1.1" id="Слой_1" xmlns="http://www.w3.org/2000/svg" xmlns:xlink="http://www.w3.org/1999/xlink" x="0px" y="0px"
	 viewBox="0 0 26.3 18.8" style="enable-background:new 0 0 26.3 18.8;" xml:space="preserve">
<style type="text/css">
	.st0{fill:#142542;}
</style>
<path class="st0" d="M13.2,16.8C8.6,16.9,4.4,14,2.8,9.7c-0.1-0.2-0.1-0.3,0-0.5C4.4,4.8,8.6,1.9,13.2,2c4.6-0.1,8.8,2.8,10.3,7.2
	c0.1,0.2,0.1,0.3,0,0.5C21.9,14,17.8,16.9,13.2,16.8z M4.4,9.4c1.4,3.6,4.9,5.9,8.7,5.8c3.8,0.1,7.3-2.3,8.7-5.8
	c-1.4-3.6-4.9-5.9-8.7-5.8C9.3,3.5,5.8,5.9,4.4,9.4z"/>
<path class="st0" d="M13.2,13.9c-2.5,0-4.5-2-4.5-4.5s2-4.5,4.5-4.5s4.5,2,4.5,4.5l0,0C17.6,11.9,15.6,13.9,13.2,13.9z M13.2,6.5
	c-1.6,0-2.9,1.3-2.9,2.9s1.3,2.9,2.9,2.9s2.9-1.3,2.9-2.9C16.1,7.8,14.8,6.5,13.2,6.5z"/>
</svg>
