<svg viewBox="0 0 17.59 18" width="20" height="20" aria-hidden="true" class="m-icon m-icon--xxl ">
            <path fill="#000" d="M8.06 7.94c.05.03.1.05.16.05s.12-.02.18-.06c.11-.08 2.67-1.99 2.67-3.86 0-1.07-.72-1.6-1.4-1.65a1.56 1.56 0 0 0-1.42.72c-.32-.5-.85-.73-1.34-.71-.76.03-1.53.65-1.53 1.78 0 2.01 2.57 3.66 2.68 3.73zM6.93 3.03h.03c.44 0 .9.32.96 1.06.01.15.14.27.29.28.17-.02.29-.11.31-.26.12-.8.63-1.13 1.11-1.1.42.03.84.37.84 1.05 0 1.32-1.71 2.81-2.26 3.25-.55-.38-2.23-1.68-2.23-3.1 0-.79.49-1.16.95-1.18zm9.51 6.76c-.52-.95-1.69-.45-2.25-.21l-2.89 1.17c-.18-.54-.8-.87-1.39-.87h-2.8a1.23 1.23 0 0 1-.6-.14l-.25-.11c-.39-.16-.97-.4-1.7-.4-1.4 0-2.52.68-3.43 1.35-.13.1-.16.29-.06.42s.29.16.42.06a5.23 5.23 0 0 1 3.07-1.23 3.92 3.92 0 0 1 1.71.45c.25.11.38.17.83.19h2.82c.4 0 .84.24.84.58 0 .46-.2.67-.65.67H7.05c-.17 0-.3.13-.3.3s.13.3.3.3h3.07c.66 0 1.08-.35 1.2-.94l3.12-1.26c.74-.31 1.27-.44 1.48-.05.08.14.23.42-.37.84-.24.16-6.07 3.71-6.73 4.06a6.3 6.3 0 0 1-3.85-1.25l-.46-.29c-.08-.04-.17-.06-.25-.03L1.2 14.47a.3.3 0 0 0-.19.38.3.3 0 0 0 .39.18l2.91-1 .33.21a6.95 6.95 0 0 0 4.24 1.34c.24 0 6.94-4.13 7-4.17.87-.59.79-1.21.56-1.62z">
            </path>
           </svg>