<svg viewBox="0 0 16.51 18" width="20" height="20" aria-hidden="true" class="m-icon m-icon--xxl">
            <path fill="#000" d="M10.3 13.45l-2.06-.01-2.01-.01a.3.3 0 0 1-.3-.3L5.9 11.8a4.39 4.39 0 1 1 6.71-3.72c0 1.48-.79 2.94-2.02 3.75v1.31a.29.29 0 0 1-.29.31zm-3.78-.62l1.72.01 1.76.01v-1.18c0-.11.05-.2.14-.26 1.14-.69 1.88-2 1.88-3.33a3.78 3.78 0 1 0-5.67 3.3.3.3 0 0 1 .15.25l.02 1.2zm3.41 2.05H6.54c-.17 0-.3-.13-.3-.3s.13-.3.3-.3h3.39c.17 0 .3.13.3.3s-.14.3-.3.3zM8.23 2.73a.3.3 0 0 1-.3-.3v-1.4c0-.17.13-.3.3-.3s.3.13.3.3v1.4a.3.3 0 0 1-.3.3zm4.27 1.73a.29.29 0 0 1-.21-.09.29.29 0 0 1 0-.42l.99-.99a.29.29 0 0 1 .42 0c.12.12.12.31 0 .42l-.99.99a.3.3 0 0 1-.21.09zM9.63 16.21H6.84c-.17 0-.3-.13-.3-.3s.13-.3.3-.3h2.78c.17 0 .3.13.3.3s-.13.3-.29.3zM3.91 4.46a.29.29 0 0 1-.21-.09l-.99-.99a.29.29 0 0 1 0-.42.29.29 0 0 1 .42 0l.99.99c.12.12.12.31 0 .42a.27.27 0 0 1-.21.09zM2.74 8.55h-1.4c-.17 0-.3-.13-.3-.3s.13-.3.3-.3h1.4c.17 0 .3.13.3.3s-.14.3-.3.3zm12.47 0h-1.4c-.17 0-.3-.13-.3-.3s.13-.3.3-.3h1.4c.17 0 .3.13.3.3s-.13.3-.3.3z">
            </path>
           </svg>