<?xml version="1.0" encoding="utf-8"?>
<!-- Generator: Adobe Illustrator 25.4.1, SVG Export Plug-In . SVG Version: 6.00 Build 0)  -->
<svg version="1.1" id="Слой_1" xmlns="http://www.w3.org/2000/svg" xmlns:xlink="http://www.w3.org/1999/xlink" x="0px" y="0px"
	 viewBox="0 0 800 800" style="enable-background:new 0 0 800 800;" xml:space="preserve">
<path d="M629.4,333c-87.7,0-161.6-77.1-161.6-169.6c0-5.1,0-10.2,0-15.4c-23.1-5.1-46.2-5.1-69.2-5.1
	c-193.9,0-350.8,169.6-346.2,370.2c0,71.9,18.5,138.8,55.4,200.5h36.9c32.3-56.6,83.1-97.7,143.1-107.9
	c60,66.8,161.6,66.8,226.2,5.1l0,0c55.4,15.4,106.2,56.6,133.9,107.9h46.2c69.2-123.4,73.9-272.5,0-395.8
	C670.9,327.9,652.5,333,629.4,333z M458.6,595.3c-36.9,20.6-83.1,20.6-120,0c-46.2-30.9-78.5-87.4-73.9-149.1
	c-4.6-82.3,55.4-159.4,138.5-164.5c83.1,5.1,143.1,82.3,138.5,164.5C537.1,502.7,509.4,559.2,458.6,595.3z M643.2,153.1v-108h-36.9
	V153H500.2v36h106.2v108h36.8V189.1h101.6v-36H643.2z"/>
</svg>
