<svg xmlns="http://www.w3.org/2000/svg" viewBox="0 0 17.36 18" width="20" height="20">
            <path fill="#000" d="M4.28 16.33a.82.82 0 0 1-.47-.15.807.807 0 0 1-.29-.9l1.54-4.79-3.78-3.25a.808.808 0 0 1-.23-.88c.12-.31.42-.52.75-.52h4.53l1.6-4.27c.11-.3.41-.5.75-.5s.63.2.75.5l1.6 4.27h4.53c.33 0 .63.21.75.52.12.31.02.67-.23.89l-3.77 3.24 1.7 4.79c.1.32.02.63-.23.86-.27.25-.69.22-.95.08-.02-.01-.03-.02-.05-.03l-4.11-2.87-3.93 2.87c-.13.09-.29.14-.46.14zm.2-.74zm4.2-3.39c.1 0 .2.03.29.09l3.89 2.72-1.61-4.51a.5.5 0 0 1 .15-.55l3.62-3.11h-4.33c-.21 0-.4-.13-.47-.32l-1.53-4.1-1.53 4.1c-.07.2-.26.32-.47.32H2.34l3.62 3.11c.15.13.21.34.15.53l-1.45 4.53 3.72-2.71c.09-.07.2-.1.3-.1zm6.75-5.72zm-13.5 0z">
            </path>
           </svg>