<?xml version="1.0" encoding="utf-8"?>
<!-- Generator: Adobe Illustrator 25.4.1, SVG Export Plug-In . SVG Version: 6.00 Build 0)  -->
<svg version="1.1" id="Слой_1" xmlns="http://www.w3.org/2000/svg" xmlns:xlink="http://www.w3.org/1999/xlink" x="0px" y="0px"
	 viewBox="0 0 41.6 6.1" style="enable-background:new 0 0 41.6 6.1;" xml:space="preserve">
<style type="text/css">
	.st0{fill:#FCFCFA;}
	.st1{fill:#FC1D00;}
</style>
<g id="Слой_1-2">
	<g id="_2057368215552">
		<path class="st0" d="M0,0.3l0.8,5.6h2.5l2.6-5.6H3.8L2.4,3.9L2.1,0.3H0z M5.1,5.1C5.8,5.7,6.8,6,7.7,6c1.5,0,2.7-0.7,2.7-2.2
			c0-1-0.7-1.3-1.5-1.5C8.4,2.2,8.2,2.1,8.2,1.9s0.2-0.3,0.4-0.3C9.1,1.7,9.5,1.8,9.9,2l0.9-1.2c-0.7-0.5-1.6-0.7-2.4-0.7
			c-1.3,0-2.6,0.7-2.6,2.1c0,0.8,0.7,1.5,1.5,1.5C7.8,3.9,8,3.9,8.1,4.1c0,0.2-0.1,0.3-0.4,0.3c-0.6,0-1.1-0.3-1.6-0.6
			C6.1,3.8,5.1,5.1,5.1,5.1z M15.6,4.1c-0.5,0.2-1.1,0.3-1.7,0.3c-0.5,0-0.8-0.3-0.8-0.6c2.6-0.1,3.4-0.8,3.4-2
			c0-1.1-0.8-1.8-2.3-1.8c-1.8,0-3.4,1.4-3.4,3.3c0,0.1,0,0.2,0,0.2c-0.1,1.2,0.8,2.2,1.9,2.3c0.2,0,0.3,0,0.5,0
			c0.9,0,1.7-0.2,2.5-0.6C15.7,5.2,15.6,4.1,15.6,4.1z M13.2,2.7c0.1-0.6,0.5-1.1,0.9-1.1c0.2,0,0.5,0.2,0.5,0.4
			C14.6,2.4,14.3,2.6,13.2,2.7z M16.9,0.3l0.8,5.6h2.5l2.6-5.6h-2.1l-1.4,3.6L19,0.3H16.9z M23.2,0.3l-0.9,5.6h2.1L25,2.2
			c0.2-0.2,0.4-0.3,0.7-0.3C26,1.9,26.1,2,26,2.6l-0.6,3.3h2.2L28.2,2c0.2-1.2-0.3-1.9-1.4-1.9c-0.7,0-1.3,0.3-1.8,0.7l-0.1-0.6
			C24.9,0.2,23.2,0.3,23.2,0.3z M33.8,0.3h-1.7l-0.9,5.6h2.2l0.5-3.4c0.2-0.2,0.5-0.4,0.8-0.4c0.2,0,0.4,0,0.6,0.1l0.4-1.9
			c-0.2-0.1-0.4-0.1-0.6-0.1c-0.5,0-1,0.3-1.2,0.8L33.8,0.3z M40.7,5.9l0.9-5.6h-2.1l-0.6,3.8c-0.2,0.2-0.4,0.3-0.7,0.3
			c-0.3,0-0.4-0.2-0.4-0.6l0.6-3.5h-2.2l-0.7,3.9c-0.2,1.2,0.3,1.9,1.5,1.9c0.7,0,1.3-0.3,1.7-0.8l0.2,0.6L40.7,5.9z"/>
		<path class="st1" d="M28.4,4.9c0,0.6,0.5,1.1,1.1,1.1c0,0,0.1,0,0.1,0c0.6,0,1.1-0.4,1.1-1c0,0,0-0.1,0-0.1c0.1-0.5-0.3-1-0.9-1.1
			c-0.1,0-0.1,0-0.2,0C28.8,3.9,28.4,4.3,28.4,4.9z"/>
	</g>
</g>
</svg>
