<svg xmlns="http://www.w3.org/2000/svg" viewBox="0.960001 0.849965 12.18 15.43">
  <path d="M12.64 1.97h-1.4v-.62a.47.47 0 0 0-.15-.35.47.47 0 0 0-.35-.15H8.56c-.28 0-.5.22-.5.5v.62h-6.6c-.28 0-.5.22-.5.5v13.31c0 .28.22.5.5.5h11.18c.28 0 .5-.22.5-.5V2.47c0-.28-.22-.5-.5-.5zm-.5 13.31H1.96V2.97h6.6c.28 0 .5-.32.5-.6v-.52h1.18v2.26c0 .18-.04.38-.11.38-.13 0-.16-.22-.16-.4v-.36l-1 .01v.35c0 1.03.62 1.4 1.16 1.4.51 0 1.11-.36 1.11-1.38V2.97h.9v12.31z

M4.58 11.5c.28 0 .5-.22.5-.5 0-.27.24-.67.67-.67h2.61c.46 0 .67.39.67.67s.22.5.5.5.5-.22.5-.5c0-.8-.64-1.67-1.67-1.67H5.74c-1 0-1.67.86-1.67 1.67.01.27.23.5.51.5zm2.47-2.41a1.83 1.83 0 1 0-1.83-1.83c0 1 .82 1.83 1.83 1.83zm0-2.67c.46 0 .83.37.83.83 0 .46-.37.83-.83.83s-.83-.37-.83-.83c0-.46.37-.83.83-.83zm3.06 6.02H4c-.28 0-.5.22-.5.5s.22.5.5.5h6.11c.28 0 .5-.22.5-.5s-.23-.5-.5-.5z" fill="#000000"/>
</svg>