<?xml version="1.0" encoding="utf-8"?>
<!-- Generator: Adobe Illustrator 25.4.1, SVG Export Plug-In . SVG Version: 6.00 Build 0)  -->
<svg version="1.1" id="Слой_1" xmlns="http://www.w3.org/2000/svg" xmlns:xlink="http://www.w3.org/1999/xlink" x="0px" y="0px"
	 viewBox="0 0 800 800" style="enable-background:new 0 0 800 800;" xml:space="preserve">
<style type="text/css">
	.st0{fill:#305369;}
</style>
<g id="Слой_x0020_1">
	<polygon class="st0" points="91.5,581 281.7,581 281.7,496.9 91.5,496.9 	"/>
	<polygon class="st0" points="91.5,409.3 281.7,409.3 281.7,382.5 91.5,382.5 	"/>
	<polygon class="st0" points="91.5,466.7 281.7,466.7 281.7,439.7 91.5,439.7 	"/>
	<polygon class="st0" points="311.2,409.3 501.4,409.3 501.4,382.5 311.2,382.5 	"/>
	<polygon class="st0" points="311.2,466.7 501.4,466.7 501.4,439.7 311.2,439.7 	"/>
	<polygon class="st0" points="311.2,523.8 501.4,523.8 501.4,496.9 311.2,496.9 	"/>
	<polygon class="st0" points="311.2,581 501.4,581 501.4,554 311.2,554 	"/>
	<path class="st0" d="M478,284.6c-1.7,3.9-4.2,7.1-7.4,9.7s-7.1,4.6-11.8,5.7c-4.6,1.3-9.6,1.8-15.1,1.8c-7.2,0-13.5-0.7-19.1-2.1
		c-5.5-1.4-9.5-2.6-12.1-4l6.3-16.8c1,0.6,2.4,1.3,4.1,1.8c1.7,0.7,3.7,1.4,5.7,1.8c2.2,0.6,4.2,1,6.6,1.5c2.4,0.5,4.8,0.6,7.3,0.6
		c5.8,0,10.4-0.9,13.5-3c3.1-2.1,4.7-4.9,4.7-8.9c0-3.1-1-5.6-3.3-7.4c-2.3-1.8-5-3.7-8.6-5.3c-3.5-1.6-7.1-3.2-11.1-4.9
		c-4-1.6-7.8-3.8-11.1-6.2c-3.3-2.4-6.3-5.5-8.6-9.3c-2.3-3.7-3.3-8.2-3.3-14.1c0-4.9,0.8-9.3,2.4-12.7c1.6-3.7,4-6.6,7-9
		c3.1-2.4,6.6-4.1,10.9-5.4c4.1-1.3,8.7-1.7,13.9-1.7c5.8,0,11.3,0.6,16.6,1.5c5.3,0.9,9.5,2.5,12.8,4.5l-6.3,16.6
		c-2.2-1.4-5.4-2.5-9.5-3.7c-4.2-1-8.8-1.6-13.7-1.6c-4.7,0-8.1,0.9-10.6,2.9c-2.4,1.8-3.7,4.2-3.7,7.3c0,3,1,5.4,3.3,7.2
		c2.3,1.8,5,3.8,8.6,5.4c3.5,1.6,7.1,3.3,11.1,5c4,1.7,7.8,3.9,11.1,6.3c3.4,2.4,6.3,5.5,8.6,9c2.3,3.7,3.3,8.1,3.3,13.5
		c0,5.4-0.9,10.1-2.6,13.9L478,284.6z M380.7,300.6h-13.3l-18.1-56.1l-2.4-15.3h-0.7l-2.4,15.7l-17.9,56H312l-27.7-101.6h21.5
		l13.5,56.3l1.8,17.9h0.6l2.1-18.2l17.6-56.1h12.9l17.3,56.3l2.1,17.9h0.6l2.2-18.2l12.3-56.1h20l-27.9,101.6L380.7,300.6z
		 M278.1,299.9h-60.7v-101h59.9v17.6h-40.1V240h36.5v17.6h-36.5v24.7h40.9L278.1,299.9L278.1,299.9L278.1,299.9z M200.2,300.6h-14.4
		l-37.9-53.4l-7.9-15.9h-0.7l2.3,15.9v52.6h-18.7V198.2h14.4l38.2,53.8l7.7,15.5h0.7l-2.3-15.5v-53.1h18.7v101.6V300.6z M91.3,159.5
		V331h413.3V159.5H91.3z"/>
	<path class="st0" d="M637.2,610.7c-8.1,0-14.7-6.5-14.7-14.7v-491c0-8.1,6.5-14.7,14.7-14.7c8.2,0,14.7,6.5,14.7,14.7v491
		C651.8,604.1,645.3,610.7,637.2,610.7z"/>
	<path class="st0" d="M695.9,622.9c-8.1,0-14.7-6.5-14.7-14.7v-491c0-8.1,6.5-14.7,14.7-14.7c8.1,0,14.7,6.5,14.7,14.7v491
		C710.7,616.4,704,622.9,695.9,622.9z"/>
	<path class="st0" d="M138.3,672.1c-39.1-7-72.2-47-72.2-87.7V123.5h474.6v460.9c0,32.5,11.7,63.5,30.7,88.8
		C388.1,676.2,169.5,677.6,138.3,672.1z M763.1,104.8c-16.3,0-29.4,13.3-29.4,29.4v484.4c0,18.1-6.5,33.4-18.3,43.3
		c-11,9.3-25.6,12.7-41.7,10.4l-2.5-0.2c-38.9-7.1-71.8-47-71.9-87.5V100.1c0-8.5-3.7-15.9-9.3-21.4c-5.3-8.5-14.4-14.2-25-14.2
		H36.6C20.2,64.6,7.2,77.9,7.2,94l0.5,3L7.2,100v484.4C7.2,654,60.3,718,128.1,729.9c19.8,3.4,89.5,4.7,172.8,4.7
		c144.7,0,330.1-3.4,366-4.1c5.5,0.7,11,1.5,16.5,1.5c26.2,0,50.5-8.6,69.9-25c25.4-21.3,39.3-52.6,39.3-88.5V134.1
		c0-16.3-13.1-29.4-29.4-29.4L763.1,104.8z"/>
</g>
</svg>
