<svg id="Слой_1" data-name="Слой 1" xmlns="http://www.w3.org/2000/svg" viewBox="0 0 65.498 65.277"><defs><style>.cls-1{fill:none;}.cls-2{fill:#142542;}</style></defs><path class="cls-1" d="M25.9,49.353c17.575,0,30.1-19.175,30.1-36.215S46.284-15.924,28.709-15.924-9.5-2.107-9.5,14.92,8.323,49.353,25.9,49.353Z" transform="translate(9.498 15.924)"/><path class="cls-2" d="M45.943,27.115h0L4.718,26.966a.5.5,0,0,1-.5-.5l.1-25.39a.5.5,0,0,1,.5-.5h0L46.041.725a.5.5,0,0,1,.5.5l-.1,25.39A.5.5,0,0,1,45.943,27.115ZM5.222,25.968l40.223.145.092-24.39L5.314,1.578Z" transform="translate(9.498 15.924)"/><path class="cls-2" d="M41.658,32.854h0L.461,32.705a.5.5,0,0,1-.5-.5L.045,8.989a.5.5,0,0,1,.5-.5h0L4.79,8.5l0,1L1.043,9.492.965,31.707l40.194.146.013-5.252,1,0-.014,5.752a.5.5,0,0,1-.5.5Z" transform="translate(9.498 15.924)"/><path class="cls-2" d="M38.752,26.979h0a.5.5,0,0,1-.5-.5A7.448,7.448,0,0,1,45.7,19.084a.511.511,0,0,1,.513.5.5.5,0,0,1-.5.5H45.7a6.445,6.445,0,0,0-6.446,6.4A.5.5,0,0,1,38.752,26.979ZM11.884,26.87h0a.5.5,0,0,1-.5-.5,6.444,6.444,0,0,0-6.42-6.434.5.5,0,0,1,0-1h0a7.445,7.445,0,0,1,7.416,7.436A.5.5,0,0,1,11.884,26.87Zm14.272-4.746A8.04,8.04,0,0,1,18.5,16.558l-2.158-.01a.5.5,0,0,1,0-1h0l1.9.009a8,8,0,0,1-.127-1.368,8.047,8.047,0,0,1,.14-1.345l-1.907-.008a.5.5,0,0,1,0-1h0l2.162.009a8.04,8.04,0,0,1,7.765-5.5,8.3,8.3,0,0,1,4.678,1.509.5.5,0,0,1-.586.811,7.548,7.548,0,0,0-4.232-1.321,7.038,7.038,0,0,0-6.568,4.509l6.319.027a.5.5,0,0,1,0,1h0l-6.613-.028a6.938,6.938,0,0,0-.158,1.346,6.828,6.828,0,0,0,.146,1.366l6.616.028a.5.5,0,0,1,.5.5.512.512,0,0,1-.5.5l-6.323-.027a7.051,7.051,0,0,0,6.634,4.562,8.2,8.2,0,0,0,4.5-1.551.5.5,0,1,1,.586.811,9.2,9.2,0,0,1-5.064,1.74ZM45.766,8.647h0A7.444,7.444,0,0,1,38.348,1.21a.5.5,0,0,1,.5-.5h0a.5.5,0,0,1,.5.5,6.443,6.443,0,0,0,6.42,6.435.5.5,0,0,1,0,1ZM5.035,8.5A.515.515,0,0,1,4.521,8a.5.5,0,0,1,.5-.5c.006,0,.009,0,.014,0a6.442,6.442,0,0,0,6.444-6.4.5.5,0,0,1,.5-.5h0a.5.5,0,0,1,.5.5A7.444,7.444,0,0,1,5.035,8.5Z" transform="translate(9.498 15.924)"/></svg>