<svg xmlns="http://www.w3.org/2000/svg" viewBox="0 0 17.3 18">
            <path fill="currentColor" d="M15.8 13.48c-.75 0-1.37-.61-1.37-1.37V8.69c0-2.31-1.4-4.41-3.51-5.32-.29-1-1.22-1.72-2.27-1.72-1.07 0-1.99.71-2.27 1.72-2.14.93-3.51 2.99-3.51 5.32v3.43c0 .75-.61 1.37-1.37 1.37-.28 0-.5.22-.5.5s.22.5.5.5h4.85c.23 1.06 1.18 1.87 2.31 1.87s2.08-.8 2.31-1.87h4.83c.28 0 .5-.22.5-.5s-.22-.51-.5-.51zm-7.14 1.87c-.58 0-1.07-.36-1.27-.87h2.54c-.21.51-.7.87-1.27.87zm-5.23-1.87c.27-.39.44-.86.44-1.37V8.69c0-2 1.23-3.77 3.13-4.49.17-.06.29-.21.32-.39.1-.67.67-1.16 1.34-1.16.66 0 1.24.5 1.34 1.16.03.18.15.33.32.39 1.86.7 3.12 2.5 3.12 4.49v3.43c0 .51.16.98.43 1.37H3.43z">
            </path>
           </svg>