<svg viewBox="0 0 14 18" width="20" height="20" aria-hidden="true" class="m-icon m-icon--xxl ">
            <path fill="#000" d="M13.5 2.44h-3.21v-.79c0-.17-.13-.3-.3-.3s-.3.13-.3.3v.79h-2.4v-.79c0-.17-.13-.3-.3-.3s-.3.13-.3.3v.79h-2.4v-.79c0-.17-.13-.3-.3-.3s-.3.13-.3.3v.79H.5a.3.3 0 0 0-.3.3v12.9c0 .17.13.3.3.3h13a.3.3 0 0 0 .3-.3V2.74a.3.3 0 0 0-.3-.3zm-.3 12.9H.8V3.04h2.89v.78c0 .17.13.3.3.3s.3-.13.3-.3v-.78h2.4v.78c0 .17.13.3.3.3s.3-.13.3-.3v-.78h2.4v.78c0 .17.13.3.3.3s.3-.13.3-.3v-.78h2.91v12.3z">
            </path>
            <path fill="#000" d="M2.92 7.47c-.17 0-.3.13-.3.3s.13.3.3.3h8.09c.17 0 .3-.13.3-.3s-.13-.3-.3-.3H2.92zm5.26 3H2.92c-.17 0-.3.13-.3.3s.13.3.3.3h5.26c.17 0 .3-.13.3-.3s-.13-.3-.3-.3z">
            </path>
           </svg>