<svg version="1.1" id="Icons" xmlns="http://www.w3.org/2000/svg" xmlns:xlink="http://www.w3.org/1999/xlink" x="0px" y="0px" viewBox="0 0 32 32" style="enable-background:new 0 0 32 32;" xml:space="preserve">
            <path class="st0" d="M28,20.6V25c0,1.1-0.9,2-2,2H6c-1.1,0-2-0.9-2-2v-4.4"></path>
            <path class="st0" d="M16,24L16,24c-1.1,0-2-0.9-2-2v-3h4v3C18,23.1,17.1,24,16,24z"></path>
            <path class="st0" d="M14,22H7c-2.2,0-4-1.8-4-4v-8c0-1.1,0.9-2,2-2h22c1.1,0,2,0.9,2,2v8c0,2.2-1.8,4-4,4h-7"></path>
            <path class="st0" d="M20,8h-8V6c0-1.1,0.9-2,2-2h4c1.1,0,2,0.9,2,2V8z"></path>
            <line class="st0" x1="7" y1="28" x2="7" y2="27"></line>
            <line class="st0" x1="25" y1="28" x2="25" y2="27"></line>
           </svg>