<svg version="1.1" id="Слой_1" xmlns="http://www.w3.org/2000/svg" x="0" y="0" viewBox="0 0 26.3 18.8" xml:space="preserve"><style>.st0{fill:#142542}</style><path class="st0" d="M13.2 16.8c-4.6.1-8.8-2.8-10.4-7.1-.1-.2-.1-.3 0-.5C4.4 4.8 8.6 1.9 13.2 2c4.6-.1 8.8 2.8 10.3 7.2.1.2.1.3 0 .5-1.6 4.3-5.7 7.2-10.3 7.1zM4.4 9.4c1.4 3.6 4.9 5.9 8.7 5.8 3.8.1 7.3-2.3 8.7-5.8a9.09 9.09 0 00-8.7-5.8c-3.8-.1-7.3 2.3-8.7 5.8z"/><path class="st0" d="M13.2 13.9c-2.5 0-4.5-2-4.5-4.5s2-4.5 4.5-4.5 4.5 2 4.5 4.5c-.1 2.5-2.1 4.5-4.5 4.5zm0-7.4c-1.6 0-2.9 1.3-2.9 2.9s1.3 2.9 2.9 2.9 2.9-1.3 2.9-2.9c0-1.6-1.3-2.9-2.9-2.9z"/></svg>9,8.7,5.8c3.8,0.1,7.3-2.3,8.7-5.8
	c-1.4-3.6-4.9-5.9-8.7-5.8C9.3,3.5,5.8,5.9,4.4,9.4z"/>
<path class="st0" d="M13.2,13.9c-2.5,0-4.5-2-4.5-4.5s2-4.5,4.5-4.5s4.5,2,4.5,4.5l0,0C17.6,11.9,15.6,13.9,13.2,13.9z M13.2,6.5
	c-1.6,0-2.9,1.3-2.9,2.9s1.3,2.9,2.9,2.9s2.9-1.3,2.9-2.9C16.1,7.8,14.8,6.5,13.2,6.5z"/>
</svg>
