<svg width="800" height="800" viewBox="-6 0 32 32" xmlns="http://www.w3.org/2000/svg"><path d="M3.375 26.625V8.969c.719-.438 1.094-1.125 1.094-1.938 0-1.219-1-2.25-2.219-2.25A2.26 2.26 0 000 7.031c0 .813.438 1.5 1.156 1.938v17.656c0 .313.219.563.5.563h1.156a.56.56 0 00.563-.563zM4.469 9.969v10.125c0 .594.313.844.688.563.719-.531 1.344-.938 1.906-1.219 1.156-.531 1.969-.781 2.719-.813.938 0 1.656.188 2.375.531.688.313 1.313.813 2.031 1.281.406.25.906.406 1.469.438.938.063 2.25-.156 3.781-1.406.344-.281.625-1 .625-1.531V7.813c0-.594-.25-.813-.625-.531-.781.594-1.5 1-2.125 1.188-1.281.344-2.281.281-3.125-.219-.719-.469-1.344-.969-2.031-1.281a5.214 5.214 0 00-2.375-.531c-.344 0-.781.094-1.25.219-.844.25-1.938.781-3.375 1.781-.375.281-.688.969-.688 1.531z"/></svg>1 0.625-1.531v-10.125c0-0.594-0.25-0.813-0.625-0.531-0.781 0.594-1.5 1-2.125 1.188-1.281 0.344-2.281 0.281-3.125-0.219-0.719-0.469-1.344-0.969-2.031-1.281-0.719-0.344-1.438-0.531-2.375-0.531-0.344 0-0.781 0.094-1.25 0.219-0.844 0.25-1.938 0.781-3.375 1.781-0.375 0.281-0.688 0.969-0.688 1.531z"></path>
</svg>