<svg viewBox="0 0 16 18" width="17" height="17" aria-hidden="true" class="m-icon m-icon--xxl ">
            <path fill="#000" d="M14.73 15.13h-2.12V8.46c0-.17-.13-.3-.3-.3s-.3.13-.3.3v6.67H8.3v-4.4c0-.17-.13-.3-.3-.3s-.3.13-.3.3v4.4H3.96v-2.34c0-.17-.13-.3-.3-.3s-.3.13-.3.3v2.34H1.27c-.17 0-.3.13-.3.3s.13.3.3.3h13.46c.17 0 .3-.13.3-.3s-.13-.3-.3-.3zM3.02 9.46h.05A12.98 12.98 0 0 0 8.3 7.25a17.53 17.53 0 0 0 3.72-3.77v1.87c0 .17.13.3.3.3a.3.3 0 0 0 .3-.3V2.57a.3.3 0 0 0-.12-.24.27.27 0 0 0-.26-.05l-2.65.7a.3.3 0 0 0-.22.36.3.3 0 0 0 .37.22l1.83-.48a16.83 16.83 0 0 1-3.62 3.67 11.98 11.98 0 0 1-4.98 2.11.3.3 0 0 0-.25.35.3.3 0 0 0 .3.25z">
            </path>
           </svg>