<svg xmlns="http://www.w3.org/2000/svg" viewBox="1 3.39103 15.68 11.54">
  <path d="M12.22 3.42a.3.3 0 0 0-.32.04c-.02.02-2.5 2.1-4.62 2.1l-2.51-.02H3.19C1.58 5.54 1 6.9 1 8.18c0 1.6.87 2.64 2.22 2.64l1.26.01h.23l1.65 3.92a.3.3 0 0 0 .28.18l.12-.02a.3.3 0 0 0 .16-.39l-1.55-3.68 1.88.01c2.28 0 4.63 1.94 4.65 1.96.06.05.12.07.19.07a.3.3 0 0 0 .13-.03.3.3 0 0 0 .17-.27V3.7a.28.28 0 0 0-.17-.28zm-9 6.79c-1.5 0-1.62-1.56-1.62-2.04 0-.61.16-2.04 1.59-2.04l1.45.01v4.08h-.16l-1.26-.01zm8.58 1.76c-.85-.61-2.68-1.73-4.54-1.73l-2.01-.01V6.15l2.04.01c1.76 0 3.64-1.21 4.51-1.86v7.67zm2.36-6l.11-.02 1.56-.58c.16-.06.23-.23.18-.39-.06-.16-.23-.23-.39-.18l-1.56.58c-.16.06-.23.23-.18.39.05.13.16.2.28.2zm2.22 1.79h-1.7a.3.3 0 0 0-.3.3c0 .17.13.3.3.3h1.7a.3.3 0 0 0 .3-.3.3.3 0 0 0-.3-.3zm-.47 2.94l-1.68-.69a.3.3 0 0 0-.39.16.3.3 0 0 0 .16.39l1.68.69c.04.02.08.02.11.02a.3.3 0 0 0 .28-.19.28.28 0 0 0-.16-.38z" fill="#000000"/>
</svg>