<svg xmlns="http://www.w3.org/2000/svg" viewBox="-0.00160406 0 15 14">
  <path d="M12.497,6a3.5,3.5,0,0,1-3.5-3.5c0-.1138.0229-.2213.0335-.3323a7.23,7.23,0,0,0-1.5338-.1649A7.6622,7.6622,0,0,0,0,9.82,8.0141,8.0141,0,0,0,1.1683,14h.7684a4.7816,4.7816,0,0,1,3.0741-2.2955,3.4743,3.4743,0,0,0,4.926.0474A4.7173,4.7173,0,0,1,12.87,14h.9557A8.0573,8.0573,0,0,0,13.87,5.719,3.4861,3.4861,0,0,1,12.497,6ZM8.7819,11.4773a2.5421,2.5421,0,0,1-2.6151-.0255A3.5743,3.5743,0,0,1,4.5375,8.3544,3.25,3.25,0,0,1,7.4968,4.8825a3.2505,3.2505,0,0,1,2.9594,3.4719A3.5615,3.5615,0,0,1,8.7819,11.4773Zm3.9659-9.2281V0h-.7516V2.2492H9.7415v.7516h2.2548V5.2556h.7516V3.0008H14.997V2.2492Z" fill="#000000"/>
</svg>