<?xml version="1.0" encoding="utf-8"?>
<!-- Generator: Adobe Illustrator 25.4.1, SVG Export Plug-In . SVG Version: 6.00 Build 0)  -->
<svg version="1.1" id="Слой_1" xmlns="http://www.w3.org/2000/svg" xmlns:xlink="http://www.w3.org/1999/xlink" x="0px" y="0px"
	 viewBox="0 0 800 800" style="enable-background:new 0 0 800 800;" xml:space="preserve">
<path d="M400,87.1C198.1,91.4,37.8,258.5,42,460.4c-0.3,85.7,28.3,169.1,81.2,236.6c7.9-65.3,70.5-120.5,158.2-146.8
	c64,65.5,169,66.8,234.5,2.9c0.2-0.2,0.4-0.4,0.6-0.6c88.5,28.6,149.7,86.9,151.7,154.9c58.3-69,90.1-156.5,89.9-246.8
	C762.2,258.5,601.9,91.4,400,87.1z M400,556.1c-22.4-0.1-44.3-6.3-63.5-17.9c-50-32.4-79.4-88.5-77.8-148
	c-5.9-84.5,56.9-158.1,141.2-165.5c84.5,7.4,147.4,81.2,141.2,165.7c1.7,60.3-28.7,117.1-79.9,149c-18.6,10.8-39.8,16.6-61.3,16.7
	V556.1z"/>
</svg>
