<?xml version="1.0" encoding="utf-8"?>
<!-- Generator: Adobe Illustrator 25.4.1, SVG Export Plug-In . SVG Version: 6.00 Build 0)  -->
<svg version="1.1" id="Слой_1" xmlns="http://www.w3.org/2000/svg" xmlns:xlink="http://www.w3.org/1999/xlink" x="0px" y="0px"
	 viewBox="0 0 15 13" style="enable-background:new 0 0 15 13;" xml:space="preserve">
<path d="M12.5,5.6C10.6,5.6,9,4.1,9,2.3C9,2.2,9,2.1,9,2C8.5,1.9,8,1.9,7.5,1.9C3.3,1.9-0.1,5.2,0,9.1c0,1.4,0.4,2.7,1.2,3.9h0.8
	c0.7-1.1,1.8-1.9,3.1-2.1c1.3,1.3,3.5,1.3,4.9,0.1c0,0,0,0,0,0c1.2,0.3,2.3,1.1,2.9,2.1h1c1.5-2.4,1.6-5.3,0-7.7
	C13.4,5.5,13,5.6,12.5,5.6z M8.8,10.7c-0.8,0.4-1.8,0.4-2.6,0c-1-0.6-1.7-1.7-1.6-2.9c-0.1-1.6,1.2-3.1,3-3.2c1.8,0.1,3.1,1.6,3,3.2
	C10.5,8.9,9.9,10,8.8,10.7z M12.8,2.1V0H12v2.1H9.7v0.7H12v2.1h0.8V2.8H15V2.1L12.8,2.1z"/>
</svg>
