<svg xmlns="http://www.w3.org/2000/svg" viewBox="0 0 17.22 18">
            <path fill="#000" d="M14.99 6.89c-.57-.08-1.07-.12-1.5-.16-1.04-.09-1.54-.15-1.72-.43-.26-.41-.12-.8.17-1.45.61-1.4.31-2.33-.04-2.86-.45-.67-1.13-.95-1.98-.82a.5.5 0 0 0-.42.4c-.29 1.5-.84 2.82-1.62 3.91-1.13 1.6-2.16 2.17-2.19 2.18-.24.13-.33.43-.21.67.13.24.43.34.67.21.06-.02 1.25-.66 2.55-2.48.8-1.12 1.37-2.44 1.71-3.92.28.02.5.15.66.4.32.47.3 1.11-.07 1.96-.27.61-.64 1.45-.07 2.33.45.7 1.26.78 2.47.89.42.04.9.08 1.45.16.29.04.38.65.35 1.21-.09 2.48-1.73 5.67-2.31 5.71-.4 0-1.09-.13-1.96-.29-1.23-.23-2.92-.54-5.08-.74-.24-.02-.71-.02-1.08-.01V7.87c0-.28-.22-.5-.5-.5H1.5c-.28 0-.5.22-.5.5v6.75c0 .28.22.5.5.5h2.79c.23 0 .42-.16.47-.37.37-.01.82-.01 1.02.01 2.11.2 3.77.5 4.99.73.96.18 1.65.31 2.14.31 1.63 0 3.16-4.32 3.3-6.48.13-1.96-.71-2.37-1.22-2.43zM2 8.37h1.79v5.75H2V8.37z">
            </path>
           </svg>