<svg viewBox="0 0 16.02 18" width="20" height="20" aria-hidden="true" class="m-icon m-icon--xxl ">
            <path fill="#000" d="M14.81 15.33h-.98V1.56c0-.1-.05-.19-.13-.25a.3.3 0 0 0-.28-.03L6.63 3.97a.3.3 0 0 0-.19.28v1.67c0 .17.13.3.3.3s.3-.13.3-.3V4.45L13.23 2v13.33h-2.26c-.17 0-.3.13-.3.3s.13.3.3.3h3.84c.17 0 .3-.13.3-.3s-.13-.3-.3-.3z">
            </path>
            <path fill="#000" d="M11.48 5.74H8.79c-.17 0-.3.13-.3.3s.13.3.3.3h2.69c.17 0 .3-.13.3-.3s-.13-.3-.3-.3zm0 2.31h-2.3c-.17 0-.3.13-.3.3s.13.3.3.3h2.31c.17 0 .3-.13.3-.3s-.14-.3-.31-.3zm.3 2.6a.3.3 0 0 0-.3-.3H9.43c-.17 0-.3.13-.3.3s.13.3.3.3h2.05a.3.3 0 0 0 .3-.3zM6.87 13.3H3.28a2.33 2.33 0 0 0-2.35 2.35c0 .17.13.3.3.3s.3-.13.3-.3c0-.85.61-1.75 1.75-1.75h3.59c1.14 0 1.75.9 1.75 1.75 0 .17.13.3.3.3s.3-.13.3-.3c0-1.16-.88-2.35-2.35-2.35zm-1.79-.63a2.73 2.73 0 1 0 0-5.47 2.73 2.73 0 0 0 0 5.47zm0-4.87a2.13 2.13 0 1 1 0 4.26 2.13 2.13 0 0 1 0-4.26z">
            </path>
           </svg>