<svg viewBox="0 0 17.8 18" width="20" height="20" aria-hidden="true" class="m-icon m-icon--xxl ">
            <path fill="#000" d="M16.39 13.85l-1.94-1.45a.3.3 0 0 0-.42.06l-.38.51-.93-.69A6.46 6.46 0 0 0 7.49 1.96a6.5 6.5 0 1 0 4.85 10.79l.95.71-.39.52a.29.29 0 0 0-.06.22c.01.08.05.15.12.2l1.94 1.45c.18.13.39.2.61.2l.15-.01a1 1 0 0 0 .67-.4l.27-.36a1.03 1.03 0 0 0-.21-1.43zm-8.9.49a5.87 5.87 0 0 1-4.4-1.98A5.84 5.84 0 0 1 1.6 8.45c0-1.48.55-2.83 1.45-3.86a5.88 5.88 0 0 1 4.44-2.03c1.55 0 2.96.6 4.02 1.58a5.9 5.9 0 0 1-4.02 10.2zm8.63.58l-.27.36a.43.43 0 0 1-.59.08l-1.7-1.27.77-1.03 1.7 1.27a.4.4 0 0 1 .16.28c.02.11 0 .22-.07.31z">
            </path>
            <path fill="#000" d="M9.14 10.31H5.9c-1.04 0-1.74.9-1.74 1.75 0 .17.13.3.3.3s.3-.13.3-.3c0-.55.46-1.15 1.15-1.15h3.24c.72 0 1.15.58 1.15 1.15 0 .17.13.3.3.3s.3-.13.3-.3a1.78 1.78 0 0 0-1.76-1.75zm-1.62-.74a2.5 2.5 0 0 0 0-5 2.5 2.5 0 0 0 0 5zm0-4.39a1.9 1.9 0 1 1 0 3.8 1.9 1.9 0 1 1 0-3.8z">
            </path>
           </svg>