<svg data-name="Слой 1" xmlns="http://www.w3.org/2000/svg" viewBox="0 0 41.6 6.1"><g data-name="Слой_1"><g data-name="2057368215552"><path d="M0 .3l.8 5.6h2.5L5.9.3H3.8L2.4 3.9 2.1.3zm5.1 4.8a3.856 3.856 0 002.6.9c1.5 0 2.7-.7 2.7-2.2 0-1-.7-1.3-1.5-1.5-.5-.1-.7-.2-.7-.4s.2-.3.4-.3a3.816 3.816 0 011.3.4l.9-1.2A4.558 4.558 0 008.4.1C7.1.1 5.8.8 5.8 2.2a1.536 1.536 0 001.5 1.5c.5.2.7.2.8.4 0 .2-.1.3-.4.3a3.139 3.139 0 01-1.6-.6l-1 1.3zm10.5-1a6.093 6.093 0 01-1.7.3c-.5 0-.8-.3-.8-.6 2.6-.1 3.4-.8 3.4-2 0-1.1-.8-1.8-2.3-1.8a3.337 3.337 0 00-3.4 3.5 2.134 2.134 0 002.4 2.3 4.871 4.871 0 002.5-.6l-.1-1.1zm-2.4-1.4c.1-.6.5-1.1.9-1.1a.458.458 0 01.5.4c0 .4-.3.6-1.4.7zM16.9.3l.8 5.6h2.5L22.8.3h-2.1l-1.4 3.6L19 .3zm6.3 0l-.9 5.6h2.1l.6-3.7a1.143 1.143 0 01.7-.3c.3 0 .4.1.3.7l-.6 3.3h2.2l.6-3.9C28.4.8 27.9.1 26.8.1a3.261 3.261 0 00-1.8.7l-.1-.6-1.7.1zm10.6 0h-1.7l-.9 5.6h2.2l.5-3.4a1.516 1.516 0 01.8-.4 1.486 1.486 0 01.6.1l.4-1.9a1.083 1.083 0 00-.6-.1 1.411 1.411 0 00-1.2.8zm6.9 5.6l.9-5.6h-2.1l-.6 3.8a1.143 1.143 0 01-.7.3c-.3 0-.4-.2-.4-.6l.6-3.5h-2.2l-.7 3.9c-.2 1.2.3 1.9 1.5 1.9a2.136 2.136 0 001.7-.8l.2.6z" fill="#fff"/><path d="M28.4 4.9A1.079 1.079 0 0029.6 6a1.049 1.049 0 001.1-1.1 1 1 0 00-1.1-1.1c-.8.1-1.2.5-1.2 1.1z" fill="#fd0"/></g></g></svg>